# Blender 5.1.1
# www.blender.org
mtllib NaveEspecial.mtl
o Cylinder
v 0.032568 -0.019975 -1.147654
v -0.008257 1.383404 -1.178485
v 0.225344 -0.016034 -1.110886
v 0.184519 1.387345 -1.141718
v 0.407387 -0.011700 -1.030836
v 0.366562 1.391679 -1.061667
v 0.571701 -0.007140 -0.910578
v 0.530876 1.396238 -0.941410
v 0.711972 -0.002530 -0.754735
v 0.671147 1.400848 -0.785567
v 0.822808 0.001953 -0.569296
v 0.781983 1.405332 -0.600127
v 0.899951 0.006138 -0.361387
v 0.859126 1.409516 -0.392218
v 0.940437 0.009863 -0.138997
v 0.899612 1.413241 -0.169828
v 0.942708 0.012985 0.089327
v 0.901883 1.416363 0.058496
v 0.906678 0.015384 0.314810
v 0.865854 1.418763 0.283979
v 0.833733 0.016968 0.528788
v 0.792907 1.420347 0.497957
v 0.726673 0.017677 0.723037
v 0.685848 1.421055 0.692206
v 0.589615 0.017482 0.890093
v 0.548790 1.420861 0.859262
v 0.427825 0.016392 1.023535
v 0.387000 1.419770 0.992704
v 0.247521 0.014448 1.118236
v 0.206696 1.417826 1.087405
v 0.055631 0.011724 1.170556
v 0.014806 1.415103 1.139725
v -0.140470 0.008327 1.178485
v -0.181295 1.411705 1.147654
v -0.333246 0.004386 1.141718
v -0.374071 1.407764 1.110886
v -0.515289 0.000052 1.061667
v -0.556114 1.403430 1.030836
v -0.679603 -0.004508 0.941410
v -0.720428 1.398871 0.910578
v -0.819874 -0.009118 0.785567
v -0.860699 1.394261 0.754736
v -0.930711 -0.013601 0.600127
v -0.971536 1.389777 0.569296
v -1.007854 -0.017786 0.392218
v -1.048679 1.385592 0.361387
v -1.048339 -0.021511 0.169828
v -1.089164 1.381868 0.138997
v -1.050611 -0.024633 -0.058496
v -1.091436 1.378746 -0.089327
v -1.014581 -0.027032 -0.283979
v -1.055406 1.376346 -0.314810
v -0.941635 -0.028616 -0.497957
v -0.982460 1.374762 -0.528788
v -0.834576 -0.029325 -0.692206
v -0.875401 1.374053 -0.723037
v -0.697518 -0.029130 -0.859262
v -0.738343 1.374248 -0.890093
v -0.535728 -0.028040 -0.992704
v -0.576553 1.375339 -1.023535
v -0.355423 -0.026096 -1.087405
v -0.396248 1.377283 -1.118236
v -0.163533 -0.023372 -1.139725
v -0.204358 1.380006 -1.170556
vn 0.0669 -0.6937 -0.7171
vn 0.0417 0.6704 -0.7408
vn 0.2294 -0.6897 -0.6868
vn 0.2047 0.6751 -0.7087
vn 0.3772 -0.6859 -0.6223
vn 0.3522 0.6806 -0.6424
vn 0.5017 -0.6826 -0.5314
vn 0.4756 0.6864 -0.5501
vn 0.5991 -0.6797 -0.4233
vn 0.5717 0.6918 -0.4411
vn 0.6696 -0.6771 -0.3054
vn 0.6406 0.6967 -0.3230
vn 0.7150 -0.6747 -0.1832
vn 0.6845 0.7007 -0.2011
vn 0.7377 -0.6725 -0.0597
vn 0.7059 0.7039 -0.0783
vn 0.7392 -0.6705 0.0634
vn 0.7066 0.7063 0.0437
vn 0.7202 -0.6686 0.1852
vn 0.6871 0.7078 0.1641
vn 0.6801 -0.6669 0.3045
vn 0.6471 0.7084 0.2819
vn 0.6176 -0.6654 0.4193
vn 0.5851 0.7081 0.3953
vn 0.5306 -0.6645 0.5262
vn 0.4992 0.7068 0.5011
vn 0.4181 -0.6642 0.6197
vn 0.3883 0.7046 0.5939
vn 0.2811 -0.6649 0.6920
vn 0.2530 0.7015 0.6662
vn 0.1246 -0.6670 0.7346
vn 0.0981 0.6978 0.7096
vn -0.0417 -0.6704 0.7408
vn -0.0669 0.6937 0.7171
vn -0.2047 -0.6751 0.7087
vn -0.2294 0.6897 0.6868
vn -0.3522 -0.6806 0.6424
vn -0.3772 0.6859 0.6223
vn -0.4756 -0.6864 0.5501
vn -0.5017 0.6826 0.5314
vn -0.5717 -0.6918 0.4411
vn -0.5991 0.6797 0.4233
vn -0.6406 -0.6967 0.3230
vn -0.6696 0.6771 0.3054
vn -0.6845 -0.7007 0.2011
vn -0.7150 0.6747 0.1832
vn -0.7059 -0.7039 0.0783
vn -0.7377 0.6725 0.0597
vn -0.7066 -0.7063 -0.0437
vn -0.7392 0.6705 -0.0634
vn -0.6871 -0.7078 -0.1641
vn -0.7202 0.6686 -0.1852
vn -0.6471 -0.7084 -0.2819
vn -0.6801 0.6669 -0.3045
vn -0.5851 -0.7081 -0.3953
vn -0.6176 0.6654 -0.4193
vn -0.4992 -0.7068 -0.5011
vn -0.5306 0.6645 -0.5262
vn -0.3883 -0.7046 -0.5939
vn -0.4181 0.6642 -0.6197
vn -0.2530 -0.7015 -0.6662
vn -0.2811 0.6649 -0.6920
vn -0.0981 -0.6978 -0.7096
vn -0.1246 0.6670 -0.7346
vt 0.489867 0.464707
vt 0.368820 0.363073
vt 0.359964 0.397713
vt 0.481076 0.499095
vt 0.352647 0.431730
vt 0.472622 0.532161
vt 0.351142 0.468198
vt 0.464832 0.562635
vt 0.353977 0.502266
vt 0.458082 0.595701
vt 0.458662 0.593431
vt 0.353561 0.503896
vt 0.352191 0.470691
vt 0.465412 0.560366
vt 0.353625 0.435333
vt 0.473203 0.529892
vt 0.359384 0.399982
vt 0.481656 0.496825
vt 0.368239 0.365343
vt 0.490447 0.462437
vt 0.376966 0.331206
vt 0.499238 0.428049
vt 0.385420 0.298140
vt 0.507692 0.394983
vt 0.393210 0.267666
vt 0.515482 0.364509
vt 0.400039 0.240955
vt 0.522311 0.337798
vt 0.458003 0.589346
vt 0.351385 0.500096
vt 0.351142 0.463337
vt 0.377546 0.328937
vt 0.498658 0.430319
vt 0.386000 0.295871
vt 0.507111 0.397252
vt 0.393790 0.265396
vt 0.514902 0.366778
vt 0.400619 0.238685
vt 0.521730 0.340067
vt 0.354230 0.435662
vt 0.351310 0.469994
vt 0.351746 0.502459
vt 0.458583 0.587077
vt 0.867087 0.667557
vt 0.883376 0.664705
vt 0.899664 0.667557
vt 0.915327 0.676004
vt 0.929762 0.689721
vt 0.942415 0.708180
vt 0.952798 0.730673
vt 0.960514 0.756335
vt 0.965265 0.784181
vt 0.966869 0.813138
vt 0.965265 0.842096
vt 0.960514 0.869941
vt 0.952798 0.895603
vt 0.942415 0.918097
vt 0.929762 0.936556
vt 0.915327 0.950273
vt 0.899664 0.958719
vt 0.883376 0.961572
vt 0.867087 0.958719
vt 0.851424 0.950273
vt 0.836989 0.936556
vt 0.824337 0.918097
vt 0.813953 0.895603
vt 0.806237 0.869941
vt 0.801486 0.842096
vt 0.799882 0.813138
vt 0.801486 0.784181
vt 0.806237 0.756335
vt 0.814229 0.730101
vt 0.825849 0.705973
vt 0.844411 0.696665
vt 0.851424 0.676004
vt 0.880561 0.963170
vt 0.899701 0.959818
vt 0.918106 0.949893
vt 0.935068 0.933775
vt 0.948587 0.926746
vt 0.962137 0.885653
vt 0.971203 0.855498
vt 0.976786 0.822779
vt 0.978671 0.788751
vt 0.976786 0.754724
vt 0.971203 0.722004
vt 0.962137 0.691850
vt 0.949936 0.665419
vt 0.935068 0.643728
vt 0.918106 0.627610
vt 0.899701 0.617684
vt 0.880561 0.614333
vt 0.861421 0.617684
vt 0.843016 0.627610
vt 0.826054 0.643728
vt 0.811187 0.665419
vt 0.798985 0.691850
vt 0.789919 0.722004
vt 0.784336 0.754724
vt 0.782451 0.788751
vt 0.784336 0.822779
vt 0.789919 0.855498
vt 0.798985 0.885653
vt 0.811187 0.912084
vt 0.826054 0.933775
vt 0.843016 0.949893
vt 0.861421 0.959818
s 1
usemtl Material.001
f 1/1/1 2/2/2 4/3/4 3/4/3
f 3/4/3 4/3/4 6/5/6 5/6/5
f 5/6/5 6/5/6 8/7/8 7/8/7
f 7/8/7 8/7/8 10/9/10 9/10/9
f 9/11/9 10/12/10 12/13/12 11/14/11
f 11/14/11 12/13/12 14/15/14 13/16/13
f 13/16/13 14/15/14 16/17/16 15/18/15
f 15/18/15 16/17/16 18/19/18 17/20/17
f 17/20/17 18/19/18 20/21/20 19/22/19
f 19/22/19 20/21/20 22/23/22 21/24/21
f 21/24/21 22/23/22 24/25/24 23/26/23
f 23/26/23 24/25/24 26/27/26 25/28/25
f 25/29/25 26/30/26 28/31/28 27/8/27
f 27/8/27 28/31/28 30/5/30 29/6/29
f 29/6/29 30/5/30 32/3/32 31/4/31
f 31/4/31 32/3/32 34/2/34 33/1/33
f 33/1/33 34/2/34 36/32/36 35/33/35
f 35/33/35 36/32/36 38/34/38 37/35/37
f 37/35/37 38/34/38 40/36/40 39/37/39
f 39/37/39 40/36/40 42/38/42 41/39/41
f 41/28/41 42/27/42 44/25/44 43/26/43
f 43/26/43 44/25/44 46/23/46 45/24/45
f 45/24/45 46/23/46 48/21/48 47/22/47
f 47/22/47 48/21/48 50/19/50 49/20/49
f 49/20/49 50/19/50 52/17/52 51/18/51
f 51/18/51 52/17/52 54/40/54 53/16/53
f 53/16/53 54/40/54 56/41/56 55/14/55
f 55/14/55 56/41/56 58/42/58 57/43/57
f 57/39/57 58/38/58 60/36/60 59/37/59
f 59/37/59 60/36/60 62/34/62 61/35/61
f 4/44/4 2/45/2 64/46/64 62/47/62 60/48/60 58/49/58 56/50/56 54/51/54 52/52/52 50/53/50 48/54/48 46/55/46 44/56/44 42/57/42 40/58/40 38/59/38 36/60/36 34/61/34 32/62/32 30/63/30 28/64/28 26/65/26 24/66/24 22/67/22 20/68/20 18/69/18 16/70/16 14/71/14 12/72/12 10/73/10 8/74/8 6/75/6
f 61/35/61 62/34/62 64/32/64 63/33/63
f 63/33/63 64/32/64 2/2/2 1/1/1
f 1/76/1 3/77/3 5/78/5 7/79/7 9/80/9 11/81/11 13/82/13 15/83/15 17/84/17 19/85/19 21/86/21 23/87/23 25/88/25 27/89/27 29/90/29 31/91/31 33/92/33 35/93/35 37/94/37 39/95/39 41/96/41 43/97/43 45/98/45 47/99/47 49/100/49 51/101/51 53/102/53 55/103/55 57/104/57 59/105/59 61/106/61 63/107/63
o Cylinder.001
v -0.026351 1.380287 -1.153664
v -0.111682 2.775917 -0.358171
v 0.166404 1.384228 -1.116899
v -0.053870 2.777099 -0.347144
v 0.348426 1.388561 -1.036853
v 0.000724 2.778399 -0.323136
v 0.512721 1.393120 -0.916602
v 0.050000 2.779766 -0.287070
v 0.652975 1.397730 -0.760768
v 0.092066 2.781149 -0.240331
v 0.763798 1.402213 -0.575338
v 0.125305 2.782494 -0.184715
v 0.840932 1.406397 -0.367438
v 0.148440 2.783748 -0.122360
v 0.881412 1.410122 -0.145059
v 0.160581 2.784866 -0.055663
v 0.883682 1.413244 0.083254
v 0.161262 2.785802 0.012814
v 0.847656 1.415643 0.308727
v 0.150456 2.786521 0.080440
v 0.774717 1.417228 0.522695
v 0.128580 2.786997 0.144615
v 0.667668 1.417936 0.716936
v 0.096473 2.787209 0.202873
v 0.530625 1.417741 0.883984
v 0.055370 2.787151 0.252975
v 0.368852 1.416651 1.017421
v 0.006850 2.786824 0.292996
v 0.188567 1.414707 1.112118
v -0.047222 2.786241 0.321399
v -0.003302 1.411984 1.164437
v -0.104769 2.785424 0.337090
v -0.199381 1.408587 1.172366
v -0.163579 2.784405 0.339469
v -0.392135 1.404646 1.135601
v -0.221391 2.783223 0.328442
v -0.574157 1.400313 1.055555
v -0.275984 2.781924 0.304434
v -0.738453 1.395754 0.935305
v -0.325261 2.780556 0.268367
v -0.878707 1.391145 0.779470
v -0.367327 2.779174 0.221628
v -0.989530 1.386661 0.594040
v -0.400566 2.777829 0.166013
v -1.066664 1.382477 0.386140
v -0.423700 2.776574 0.103658
v -1.107143 1.378752 0.163761
v -0.435841 2.775457 0.036961
v -1.109414 1.375630 -0.064552
v -0.436522 2.774521 -0.031517
v -1.073387 1.373231 -0.290025
v -0.425717 2.773801 -0.099142
v -1.000448 1.371647 -0.503993
v -0.403840 2.773326 -0.163317
v -0.893400 1.370939 -0.698234
v -0.371734 2.773113 -0.221575
v -0.756356 1.371133 -0.865282
v -0.330631 2.773172 -0.271677
v -0.594584 1.372223 -0.998719
v -0.282110 2.773499 -0.311699
v -0.414299 1.374167 -1.093416
v -0.228038 2.774082 -0.340101
v -0.222430 1.376890 -1.145735
v -0.170492 2.774898 -0.355793
vn 0.0739 -0.4814 -0.8734
vn 0.0235 0.8461 -0.5325
vn 0.2685 -0.4790 -0.8358
vn 0.1414 0.8479 -0.5110
vn 0.4450 -0.4791 -0.7566
vn 0.2495 0.8487 -0.4663
vn 0.5930 -0.4810 -0.6458
vn 0.3421 0.8489 -0.4030
vn 0.7081 -0.4838 -0.5143
vn 0.4162 0.8486 -0.3267
vn 0.7906 -0.4866 -0.3718
vn 0.4711 0.8482 -0.2421
vn 0.8431 -0.4886 -0.2246
vn 0.5073 0.8481 -0.1531
vn 0.8688 -0.4893 -0.0765
vn 0.5257 0.8484 -0.0622
vn 0.8698 -0.4883 0.0706
vn 0.5273 0.8492 0.0289
vn 0.8470 -0.4857 0.2160
vn 0.5123 0.8506 0.1187
vn 0.7997 -0.4815 0.3586
vn 0.4806 0.8524 0.2059
vn 0.7260 -0.4761 0.4963
vn 0.4316 0.8547 0.2886
vn 0.6233 -0.4700 0.6250
vn 0.3648 0.8570 0.3640
vn 0.4901 -0.4642 0.7378
vn 0.2802 0.8590 0.4285
vn 0.3273 -0.4598 0.8255
vn 0.1793 0.8602 0.4774
vn 0.1411 -0.4581 0.8776
vn 0.0657 0.8603 0.5056
vn -0.0570 -0.4600 0.8861
vn -0.0540 0.8588 0.5095
vn -0.2516 -0.4655 0.8485
vn -0.1718 0.8558 0.4880
vn -0.4280 -0.4741 0.7695
vn -0.2799 0.8516 0.4433
vn -0.5757 -0.4843 0.6588
vn -0.3724 0.8467 0.3801
vn -0.6906 -0.4948 0.5275
vn -0.4464 0.8417 0.3039
vn -0.7728 -0.5044 0.3851
vn -0.5012 0.8371 0.2194
vn -0.8252 -0.5122 0.2381
vn -0.5373 0.8332 0.1304
vn -0.8508 -0.5178 0.0901
vn -0.5557 0.8304 0.0395
vn -0.8518 -0.5208 -0.0570
vn -0.5573 0.8287 -0.0515
vn -0.8290 -0.5213 -0.2025
vn -0.5423 0.8282 -0.1414
vn -0.7818 -0.5193 -0.3451
vn -0.5106 0.8289 -0.2286
vn -0.7083 -0.5149 -0.4829
vn -0.4617 0.8306 -0.3113
vn -0.6058 -0.5086 -0.6118
vn -0.3950 0.8333 -0.3868
vn -0.4728 -0.5011 -0.7248
vn -0.3105 0.8365 -0.4514
vn -0.3103 -0.4933 -0.8126
vn -0.2097 0.8401 -0.5003
vn -0.1242 -0.4864 -0.8649
vn -0.0962 0.8434 -0.5286
vt 0.855847 0.321718
vt 0.855847 0.686940
vt 0.833020 0.686940
vt 0.833020 0.321718
vt 0.810194 0.686940
vt 0.810194 0.321718
vt 0.787368 0.686940
vt 0.787368 0.321718
vt 0.764541 0.686940
vt 0.764541 0.321718
vt 0.741715 0.686940
vt 0.741715 0.321718
vt 0.718889 0.686940
vt 0.718889 0.321718
vt 0.696062 0.686940
vt 0.696062 0.321718
vt 0.673236 0.686940
vt 0.673236 0.321718
vt 0.650410 0.686940
vt 0.650410 0.321718
vt 0.627583 0.686940
vt 0.627583 0.321718
vt 0.604757 0.686940
vt 0.604757 0.321718
vt 0.581931 0.686940
vt 0.581931 0.321718
vt 0.559104 0.686940
vt 0.559104 0.321718
vt 0.536278 0.686940
vt 0.536278 0.321718
vt 0.513451 0.686940
vt 0.513451 0.321718
vt 0.490625 0.686940
vt 0.490625 0.321718
vt 0.467799 0.686940
vt 0.467799 0.321718
vt 0.444972 0.686940
vt 0.444972 0.321718
vt 0.422146 0.686940
vt 0.422146 0.321718
vt 0.399320 0.686940
vt 0.399320 0.321718
vt 0.376493 0.686940
vt 0.376493 0.321718
vt 0.353667 0.686940
vt 0.353667 0.321718
vt 0.330841 0.686940
vt 0.330841 0.321718
vt 0.308014 0.686940
vt 0.308014 0.321718
vt 0.285188 0.686940
vt 0.285188 0.321718
vt 0.262361 0.686940
vt 0.262361 0.321718
vt 0.239535 0.686940
vt 0.239535 0.321718
vt 0.216709 0.686940
vt 0.216709 0.321718
vt 0.193882 0.686940
vt 0.193882 0.321718
vt 0.171056 0.686940
vt 0.171056 0.321718
vt 0.530534 0.741967
vt 0.542399 0.743588
vt 0.554090 0.747530
vt 0.565159 0.753641
vt 0.575179 0.761685
vt 0.583767 0.771354
vt 0.590591 0.782275
vt 0.595390 0.794030
vt 0.597979 0.806167
vt 0.598259 0.818219
vt 0.596219 0.829723
vt 0.591937 0.840237
vt 0.585578 0.849357
vt 0.577386 0.856732
vt 0.567677 0.862080
vt 0.556822 0.865193
vt 0.545240 0.865954
vt 0.533376 0.864332
vt 0.521684 0.860390
vt 0.510616 0.854280
vt 0.500595 0.846236
vt 0.492008 0.836567
vt 0.485183 0.825645
vt 0.480385 0.813890
vt 0.477795 0.801753
vt 0.477516 0.789701
vt 0.479556 0.778197
vt 0.483838 0.767683
vt 0.490197 0.758564
vt 0.498388 0.751188
vt 0.508098 0.745841
vt 0.518952 0.742727
vt 0.148230 0.686940
vt 0.148230 0.321718
vt 0.125403 0.686940
vt 0.125403 0.321718
vt 0.416624 0.713882
vt 0.404760 0.712260
vt 0.393178 0.713021
vt 0.382323 0.716135
vt 0.372614 0.721482
vt 0.364422 0.728857
vt 0.358063 0.737977
vt 0.353781 0.748491
vt 0.351741 0.759995
vt 0.352021 0.772047
vt 0.354610 0.784184
vt 0.359409 0.795939
vt 0.366233 0.806861
vt 0.374821 0.816530
vt 0.384841 0.824574
vt 0.395910 0.830684
vt 0.407601 0.834626
vt 0.419466 0.836248
vt 0.431048 0.835487
vt 0.441902 0.832373
vt 0.451612 0.827026
vt 0.459803 0.819651
vt 0.466162 0.810531
vt 0.470444 0.800017
vt 0.472485 0.788513
vt 0.472205 0.776461
vt 0.469616 0.764324
vt 0.464817 0.752569
vt 0.457992 0.741647
vt 0.449405 0.731979
vt 0.439384 0.723934
vt 0.428316 0.717824
s 1
usemtl Material.002
f 65/108/65 66/109/66 68/110/68 67/111/67
f 67/111/67 68/110/68 70/112/70 69/113/69
f 69/113/69 70/112/70 72/114/72 71/115/71
f 71/115/71 72/114/72 74/116/74 73/117/73
f 73/117/73 74/116/74 76/118/76 75/119/75
f 75/119/75 76/118/76 78/120/78 77/121/77
f 77/121/77 78/120/78 80/122/80 79/123/79
f 79/123/79 80/122/80 82/124/82 81/125/81
f 81/125/81 82/124/82 84/126/84 83/127/83
f 83/127/83 84/126/84 86/128/86 85/129/85
f 85/129/85 86/128/86 88/130/88 87/131/87
f 87/131/87 88/130/88 90/132/90 89/133/89
f 89/133/89 90/132/90 92/134/92 91/135/91
f 91/135/91 92/134/92 94/136/94 93/137/93
f 93/137/93 94/136/94 96/138/96 95/139/95
f 95/139/95 96/138/96 98/140/98 97/141/97
f 97/141/97 98/140/98 100/142/100 99/143/99
f 99/143/99 100/142/100 102/144/102 101/145/101
f 101/145/101 102/144/102 104/146/104 103/147/103
f 103/147/103 104/146/104 106/148/106 105/149/105
f 105/149/105 106/148/106 108/150/108 107/151/107
f 107/151/107 108/150/108 110/152/110 109/153/109
f 109/153/109 110/152/110 112/154/112 111/155/111
f 111/155/111 112/154/112 114/156/114 113/157/113
f 113/157/113 114/156/114 116/158/116 115/159/115
f 115/159/115 116/158/116 118/160/118 117/161/117
f 117/161/117 118/160/118 120/162/120 119/163/119
f 119/163/119 120/162/120 122/164/122 121/165/121
f 121/165/121 122/164/122 124/166/124 123/167/123
f 123/167/123 124/166/124 126/168/126 125/169/125
f 68/170/68 66/171/66 128/172/128 126/173/126 124/174/124 122/175/122 120/176/120 118/177/118 116/178/116 114/179/114 112/180/112 110/181/110 108/182/108 106/183/106 104/184/104 102/185/102 100/186/100 98/187/98 96/188/96 94/189/94 92/190/92 90/191/90 88/192/88 86/193/86 84/194/84 82/195/82 80/196/80 78/197/78 76/198/76 74/199/74 72/200/72 70/201/70
f 125/169/125 126/168/126 128/202/128 127/203/127
f 127/203/127 128/202/128 66/204/66 65/205/65
f 65/206/65 67/207/67 69/208/69 71/209/71 73/210/73 75/211/75 77/212/77 79/213/79 81/214/81 83/215/83 85/216/85 87/217/87 89/218/89 91/219/91 93/220/93 95/221/95 97/222/97 99/223/99 101/224/101 103/225/103 105/226/105 107/227/107 109/228/109 111/229/111 113/230/113 115/231/115 117/232/117 119/233/119 121/234/121 123/235/123 125/236/125 127/237/127
